<svg xmlns="http://www.w3.org/2000/svg" width="24.903" height="26.556" viewBox="0 0 24.903 26.556">
  <g id="Website" transform="translate(-0.049)">
    <g id="InstaCEI-web-login" transform="translate(-888 -399)">
      <g id="Group-7" transform="translate(455 140)">
        <g id="Group-5" transform="translate(57 223)">
          <g id="ic_forgot" transform="translate(376 36)">
            <circle id="Oval" cx="1.037" cy="1.037" r="1.037" transform="translate(12.6 16.909)"/>
            <path id="Shape" d="M17.113,24.481H4.2a2.077,2.077,0,0,1-2.075-2.075V13.9A2.077,2.077,0,0,1,4.2,11.826H19.136a2.112,2.112,0,0,1,.573.064,1.037,1.037,0,0,0,.571-1.994,4.122,4.122,0,0,0-1.144-.144H17.889V6.093a6.225,6.225,0,0,0-12.448,0V9.751H4.2A4.154,4.154,0,0,0,.049,13.9v8.506A4.154,4.154,0,0,0,4.2,26.556H17.113a1.037,1.037,0,1,0,0-2.075ZM7.516,6.093a4.09,4.09,0,0,1,4.149-4.018,4.09,4.09,0,0,1,4.149,4.018V9.751h-8.3V6.093Z"/>
            <circle id="Oval-2" data-name="Oval" cx="1.037" cy="1.037" r="1.037" transform="translate(8.71 16.909)"/>
            <path id="Path" d="M24.951,17.179a3.684,3.684,0,0,0-7.368.042,1.037,1.037,0,1,0,2.075,0,1.609,1.609,0,1,1,3.218,0c0,.009,0,.019,0,.028A1.609,1.609,0,0,1,21.9,18.7,2.759,2.759,0,0,0,20.23,21.25v.9a1.037,1.037,0,0,0,2.075,0v-.9a.687.687,0,0,1,.408-.639,3.681,3.681,0,0,0,2.239-3.391C24.951,17.207,24.951,17.193,24.951,17.179Z"/>
            <circle id="Oval-3" data-name="Oval" cx="1.037" cy="1.037" r="1.037" transform="translate(20.225 24.481)"/>
            <circle id="Oval-4" data-name="Oval" cx="1.037" cy="1.037" r="1.037" transform="translate(4.82 16.909)"/>
          </g>
        </g>
      </g>
    </g>
  </g>
</svg>
