<?xml version="1.0" encoding="UTF-8"?>
<svg width="15px" height="15px" viewBox="0 0 15 15" version="1.1" xmlns="http://www.w3.org/2000/svg" xmlns:xlink="http://www.w3.org/1999/xlink">
    <!-- Generator: sketchtool 53.2 (72643) - https://sketchapp.com -->
    <title>2680CF60-BB6E-4637-9273-BFE47C74542C</title>
    <desc>Created with sketchtool.</desc>
    <g id="customer-satisfaction" stroke="none" stroke-width="1" fill="none" fill-rule="evenodd">
        <g id="12" transform="translate(-691.000000, -392.000000)" fill="#42B3FC" fill-rule="nonzero">
            <g id="Group-7" transform="translate(271.000000, 254.000000)">
                <g id="Group-6" transform="translate(31.000000, 81.000000)">
                    <g id="Group-5">
                        <path d="M396.5,57 C400.635385,57 404,60.3643846 404,64.5 C404,68.6356154 400.635385,72 396.5,72 C392.364615,72 389,68.6356154 389,64.5 C389,60.3643846 392.364615,57 396.5,57 Z M396.5,71.0769231 C400.126538,71.0769231 403.076923,68.1265385 403.076923,64.5 C403.076923,60.8734615 400.126538,57.9230769 396.5,57.9230769 C392.873462,57.9230769 389.923077,60.8734615 389.923077,64.5 C389.923077,68.1265385 392.873462,71.0769231 396.5,71.0769231 Z M396.619538,62.2813846 C396.193217,62.2813846 395.847615,61.9357829 395.847615,61.5094615 C395.847615,61.0831402 396.193217,60.7375385 396.619538,60.7375385 C397.04586,60.7375385 397.391462,61.0831402 397.391462,61.5094615 C397.391462,61.9357829 397.04586,62.2813846 396.619538,62.2813846 Z M396.416231,63.5404615 C396.671,63.5404615 396.877769,63.747 396.877769,64.002 L396.877769,67.9250769 C396.877769,68.1798462 396.671,68.3866154 396.416231,68.3866154 C396.161462,68.3866154 395.954692,68.1798462 395.954692,67.9250769 L395.954692,64.002 C395.954692,63.7472308 396.161462,63.5404615 396.416231,63.5404615 Z" id="ic_info"></path>
                    </g>
                </g>
            </g>
        </g>
    </g>
</svg>